# xmcd
#
# Track frame offsets: 
#        150
#        15085
#        30461
#        46615
#        61520
#        76773
#        90538
#        105583
#        119849
#        134821
#        149991
#        164742
#
# Disc length: 2433 seconds
#
# Revision: 1
# Processed by: cddbd v1.5.2PL0 Copyright (c) Steve Scherf et al.
# Submitted via: ExactAudioCopy v1.3
#
DISCID=9a097f0c
DTITLE=Kastelruther Spatzen - Jeder Tag ist eine Rose (1)
DYEAR=2008
DGENRE=Volksmusik
TTITLE0=Jedes Abendrot ist ein Gebet
TTITLE1=Und ewig wird der Himmel brennen
TTITLE2=Liebe darf alles
TTITLE3=Ich liebe meine Heimat
TTITLE4=Herzen an die Macht
TTITLE5=Gloria alla Montagna
TTITLE6=Träume sind nur Fantasie
TTITLE7=Liebe kann nur ein Wunder sein
TTITLE8=Und ewig weint Jerusalem
TTITLE9=Wenn Gott eine Tür schließt
TTITLE10=Lieder, die wie Menschen sind
TTITLE11=Santa Patria
EXTD=
EXTT0=
EXTT1=
EXTT2=
EXTT3=
EXTT4=
EXTT5=
EXTT6=
EXTT7=
EXTT8=
EXTT9=
EXTT10=
EXTT11=
PLAYORDER=
